<svg width="94" height="73" viewBox="0 0 94 73" fill="none" xmlns="http://www.w3.org/2000/svg">
<g opacity="0.22">
<path d="M11.1601 9.18091C6.09812 13.9973 3.11998 19.8167 2.47101 25.6211C1.82601 31.4579 3.45985 37.2462 7.50972 42.0667C11.4295 46.7318 17.5034 50.3294 24.4997 52.4701C27.9982 53.5437 31.766 54.2484 35.6312 54.5393C39.5245 54.8333 43.6194 54.7337 47.5424 54.0622C51.5832 53.3697 55.6962 51.9833 58.3205 49.4682C61.0838 46.8042 62.5349 43.4709 62.7101 40.2939C62.8805 37.0779 62.046 33.8137 59.9635 31.0844C59.0382 29.8735 57.9188 28.7392 56.4005 27.8974C55.0505 27.147 53.4554 26.5847 51.793 26.2283C48.6766 25.5559 44.7113 25.4288 41.8232 27.0737C40.3359 27.9212 39.2895 29.1957 38.4455 30.386C37.468 31.7706 36.7153 33.2528 36.2871 34.7414C35.8656 36.2094 35.8859 37.7353 35.9356 39.1983C35.996 40.8247 36.2113 42.4322 36.5725 44.0217C37.3031 47.1933 38.5956 50.2696 40.4365 53.1405C42.2321 55.9445 44.5159 58.6557 47.4007 60.9112C50.174 63.0882 53.5816 64.779 57.3326 66.0259C65.6744 68.8056 75.2619 69.2192 84.6498 68.8337C87.0796 68.7338 89.503 68.582 91.9324 68.4031C92.4277 68.3688 92.8048 67.9734 92.7643 67.6424C92.719 67.2724 92.2688 67.0706 91.7735 67.105C82.4494 67.7856 72.8265 68.1405 63.9763 66.3454C60.1914 65.577 56.5748 64.4454 53.3927 62.8587C50.1313 61.229 47.553 59.1336 45.3743 56.7521C40.8152 51.7766 38.178 45.8015 37.7946 39.6492C37.7049 38.2372 37.6445 36.7623 37.9698 35.3391C38.2847 33.9829 38.9257 32.6461 39.742 31.3801C40.458 30.2779 41.4018 28.9963 42.6743 28.208C43.7915 27.5112 45.1509 27.2064 46.5905 27.1026C49.7462 26.8874 53.1043 27.7213 55.4463 29.0946C56.7911 29.8786 57.8154 30.9917 58.6012 32.1208C59.5218 33.4442 60.1602 34.8813 60.517 36.3594C61.2265 39.2831 61.0327 42.3834 59.4745 45.2951C58.7304 46.6972 57.7165 48.0862 56.3221 49.2386C55.0616 50.2757 53.457 51.0717 51.7534 51.6624C48.2125 52.8866 44.2509 53.319 40.4734 53.3666C36.7605 53.4128 33.0728 53.0607 29.5792 52.329C22.6308 50.8808 16.38 48.0295 11.8447 44.0788C7.17493 40.0127 4.59388 34.874 4.2135 29.4263C3.83552 23.9981 5.63448 18.3691 9.4304 13.4113C10.3556 12.2044 11.4073 11.048 12.5671 9.9441C13.2944 9.23578 11.8973 8.47796 11.1601 9.18091Z" fill="#219653"/>
<path d="M88.4247 73.451C88.4508 73.3622 88.4869 73.2787 88.5221 73.1887C88.5011 73.244 88.471 73.3004 88.45 73.3557C88.7121 72.7768 89.1455 72.2362 89.5613 71.7044C89.9923 71.1443 90.4331 70.5897 90.883 70.0339C91.1405 69.7191 91.4071 69.4032 91.6736 69.0872C91.6336 69.1383 91.5928 69.1828 91.5437 69.2349C91.8503 68.868 92.1858 68.5107 92.4824 68.1384C92.8524 67.6846 92.8478 67.1186 92.386 66.7469C92.0578 66.4841 91.6274 66.293 91.2394 66.0705C90.8819 65.8705 90.5328 65.6629 90.201 65.4466C89.8197 65.2034 89.4468 64.9527 89.092 64.6996C89.1432 64.7395 89.1935 64.7729 89.2537 64.8116C88.2803 64.1139 87.4015 63.3585 86.6083 62.5465C86.386 62.3168 86.1628 62.0806 85.9479 61.8368C85.8393 61.7052 85.5789 61.6185 85.3646 61.6052C85.1403 61.5866 84.851 61.6418 84.6708 61.7561C84.4905 61.8704 84.3333 62.0214 84.2992 62.1969C84.266 62.3788 84.3223 62.5366 84.4516 62.6855C85.8049 64.2194 87.4804 65.5887 89.3987 66.7504C89.6587 66.9096 89.927 67.0612 90.1953 67.2128C90.4628 67.358 90.7569 67.4933 90.9995 67.6612C90.9483 67.6213 90.898 67.588 90.8378 67.5492C90.8988 67.5945 90.9507 67.6408 91.0042 67.7001C90.9705 67.6516 90.9277 67.6041 90.894 67.5555C90.9269 67.5976 90.9507 67.6408 90.9654 67.6851C90.9491 67.6278 90.9329 67.5705 90.9075 67.5143C90.9214 67.5522 90.9269 67.5976 90.9226 67.6377C90.9245 67.5781 90.9265 67.5186 90.9376 67.4579C90.934 67.5045 90.9206 67.5457 90.9071 67.5868C90.9281 67.5316 90.9582 67.4752 90.9792 67.4199C90.9356 67.5175 90.8723 67.6043 90.7998 67.6922C90.8398 67.6412 90.8806 67.5967 90.9297 67.5446C89.6919 68.994 88.4442 70.438 87.361 71.9409C87.0442 72.375 86.7844 72.8218 86.6296 73.2953C86.5758 73.46 86.6559 73.661 86.782 73.784C86.908 73.9069 87.1426 74.0099 87.3653 74.0155C87.8702 74.0591 88.3028 73.8151 88.4247 73.451Z" fill="#219653"/>
</g>
</svg>
