<svg width="15" height="15" viewBox="0 0 15 15" fill="none" xmlns="http://www.w3.org/2000/svg">
<path d="M1 6.00682V13.1598C1 13.3495 1.07535 13.5314 1.20947 13.6655C1.34359 13.7996 1.52549 13.875 1.71516 13.875H13.1598C13.3495 13.875 13.5314 13.7996 13.6655 13.6655C13.7997 13.5314 13.875 13.3495 13.875 13.1598V6.00682M1 6.00682H13.875M1 6.00682V3.14583C1 2.95615 1.07535 2.77425 1.20947 2.64013C1.34359 2.50601 1.52549 2.43066 1.71516 2.43066H13.1598C13.3495 2.43066 13.5314 2.50601 13.6655 2.64013C13.7997 2.77425 13.875 2.95615 13.875 3.14583V6.00682" stroke="#B43838" stroke-linecap="round" stroke-linejoin="round"/>
<path d="M10.2991 1V3.861M4.57715 1V3.861" stroke="#435C3E" stroke-linecap="round" stroke-linejoin="round"/>
</svg>
