<svg width="369" height="193" viewBox="0 0 369 193" fill="none" xmlns="http://www.w3.org/2000/svg">
<path d="M342.976 0.640017C329.024 -1.51641 314.505 12.6161 305.35 34.8763C300.912 21.9044 293.454 13.1728 283.967 11.7065C270.015 9.55005 255.496 23.6825 246.341 45.9427C241.903 32.9709 234.445 24.2393 224.958 22.7729C211.006 20.6165 196.487 34.749 187.332 57.0092C182.894 44.0373 175.436 35.3058 165.949 33.8394C151.997 31.683 137.478 45.8154 128.323 68.0756C123.885 55.1038 116.427 46.3722 106.94 44.9059C92.988 42.7494 78.4691 56.8819 69.3145 79.1421C64.8763 66.1702 57.4183 57.4387 47.931 55.9723C28.6677 52.995 8.332 81.0498 2.52074 118.648C-3.29052 156.247 7.62621 189.132 26.8895 192.109C40.8414 194.266 55.3603 180.133 64.515 157.873C68.9532 170.845 76.4111 179.577 85.8984 181.043C99.8504 183.199 114.369 169.067 123.524 146.807C127.962 159.779 135.42 168.51 144.907 169.977C158.859 172.133 173.378 158.001 182.533 135.74C186.971 148.712 194.429 157.444 203.916 158.91C217.868 161.067 232.387 146.934 241.542 124.674C245.98 137.646 253.438 146.377 262.925 147.844C276.877 150 291.396 135.868 300.551 113.607C304.989 126.579 312.447 135.311 321.934 136.777C341.198 139.755 361.533 111.7 367.345 74.1012C373.156 36.5027 362.258 3.62034 342.976 0.640017Z" fill="white"/>
</svg>
