<svg width="769" height="145" viewBox="0 0 769 145" fill="none" xmlns="http://www.w3.org/2000/svg">
<path d="M703.211 1.47285C673.244 -3.15888 644.897 8.83628 629.336 30.1064C617.674 16.0181 600.342 5.76032 579.965 2.61074C549.998 -2.021 521.651 9.97416 506.09 31.2443C494.428 17.156 477.096 6.8982 456.718 3.74862C426.751 -0.883118 398.404 11.112 382.844 32.3821C371.182 18.2938 353.85 8.03612 333.472 4.88653C303.505 0.254797 275.158 12.2499 259.597 33.52C247.936 19.4317 230.604 9.17401 210.226 6.02442C180.259 1.39269 151.912 13.3878 136.351 34.6579C124.69 20.5696 107.358 10.3119 86.9799 7.1623C45.6047 0.767311 7.332 26.0498 1.52074 63.6483C-4.29052 101.247 24.5632 136.905 65.9384 143.299C95.9055 147.931 124.253 135.936 139.813 114.666C151.475 128.754 168.807 139.012 189.185 142.162C219.152 146.793 247.499 134.798 263.059 113.528C274.721 127.616 292.053 137.874 312.431 141.024C342.398 145.655 370.745 133.66 386.306 112.39C397.967 126.479 415.299 136.736 435.677 139.886C465.644 144.518 493.991 132.522 509.552 111.252C521.213 125.341 538.545 135.598 558.923 138.748C588.89 143.38 617.237 131.385 632.798 110.114C644.46 124.203 661.792 134.46 682.169 137.61C723.545 144.005 761.817 118.722 767.628 81.124C773.44 43.5255 744.627 7.87424 703.211 1.47285Z" fill="white"/>
</svg>
