<svg width="32" height="32" viewBox="0 0 32 32" fill="none" xmlns="http://www.w3.org/2000/svg">
<path d="M23.3333 2.66675V3.33341C23.3333 3.68704 23.1928 4.02618 22.9428 4.27622C22.6927 4.52627 22.3536 4.66675 22 4.66675C21.6463 4.66675 21.3072 4.52627 21.0571 4.27622C20.8071 4.02618 20.6666 3.68704 20.6666 3.33341V2.00008C20.6666 1.64646 20.8071 1.30732 21.0571 1.05727C21.3072 0.807224 21.6463 0.666748 22 0.666748C22.353 0.668237 22.6911 0.80969 22.94 1.06008C23.1903 1.30898 23.3318 1.64703 23.3333 2.00008V2.66675ZM18 2.66675V3.33341C18 3.68704 17.8595 4.02618 17.6094 4.27622C17.3594 4.52627 17.0202 4.66675 16.6666 4.66675C16.313 4.66675 15.9739 4.52627 15.7238 4.27622C15.4738 4.02618 15.3333 3.68704 15.3333 3.33341V2.00008C15.3333 1.64646 15.4738 1.30732 15.7238 1.05727C15.9739 0.807224 16.313 0.666748 16.6666 0.666748C17.0197 0.668237 17.3577 0.80969 17.6066 1.06008C17.857 1.30898 17.9985 1.64703 18 2.00008V2.66675ZM12.6666 2.66675V3.33341C12.6666 3.68704 12.5261 4.02618 12.2761 4.27622C12.0261 4.52627 11.6869 4.66675 11.3333 4.66675C10.9797 4.66675 10.6405 4.52627 10.3905 4.27622C10.1404 4.02618 9.99996 3.68704 9.99996 3.33341V2.00008C9.99996 1.64646 10.1404 1.30732 10.3905 1.05727C10.6405 0.807224 10.9797 0.666748 11.3333 0.666748C11.6863 0.668237 12.0244 0.80969 12.2733 1.06008C12.5237 1.30898 12.6651 1.64703 12.6666 2.00008V2.66675ZM7.33329 2.66675V3.33341C7.33329 3.68704 7.19282 4.02618 6.94277 4.27622C6.69272 4.52627 6.35358 4.66675 5.99996 4.66675C5.64634 4.66675 5.3072 4.52627 5.05715 4.27622C4.8071 4.02618 4.66663 3.68704 4.66663 3.33341V2.00008C4.66663 1.64646 4.8071 1.30732 5.05715 1.05727C5.3072 0.807224 5.64634 0.666748 5.99996 0.666748C6.35301 0.668237 6.69106 0.80969 6.93996 1.06008C7.19035 1.30898 7.3318 1.64703 7.33329 2.00008V2.66675Z" fill="#C3B944"/>
<path d="M27.3333 6.66675H0.666626V5.33341C0.666626 4.62617 0.947578 3.94789 1.44767 3.4478C1.94777 2.9477 2.62605 2.66675 3.33329 2.66675H4.66663V3.33341C4.66663 3.68704 4.8071 4.02618 5.05715 4.27622C5.3072 4.52627 5.64634 4.66675 5.99996 4.66675C6.35358 4.66675 6.69272 4.52627 6.94277 4.27622C7.19282 4.02618 7.33329 3.68704 7.33329 3.33341V2.66675H9.99996V3.33341C9.99996 3.68704 10.1404 4.02618 10.3905 4.27622C10.6405 4.52627 10.9797 4.66675 11.3333 4.66675C11.6869 4.66675 12.0261 4.52627 12.2761 4.27622C12.5261 4.02618 12.6666 3.68704 12.6666 3.33341V2.66675H15.3333V3.33341C15.3333 3.68704 15.4738 4.02618 15.7238 4.27622C15.9739 4.52627 16.313 4.66675 16.6666 4.66675C17.0202 4.66675 17.3594 4.52627 17.6094 4.27622C17.8595 4.02618 18 3.68704 18 3.33341V2.66675H20.6666V3.33341C20.6666 3.68704 20.8071 4.02618 21.0571 4.27622C21.3072 4.52627 21.6463 4.66675 22 4.66675C22.3536 4.66675 22.6927 4.52627 22.9428 4.27622C23.1928 4.02618 23.3333 3.68704 23.3333 3.33341V2.66675H24.6666C25.3739 2.66675 26.0521 2.9477 26.5522 3.4478C27.0523 3.94789 27.3333 4.62617 27.3333 5.33341V6.66675Z" fill="#FF7E73"/>
<path d="M16 18.6667H12V22.6667H16V18.6667Z" fill="#FF7E73"/>
<path d="M8 18.6667H4V22.6667H8V18.6667Z" fill="#FF7E73"/>
<path d="M8 10.6667H4V14.6667H8V10.6667Z" fill="#FF7E73"/>
<path d="M16 10.6667H12V14.6667H16V10.6667Z" fill="#FF7E73"/>
<path d="M24.2066 12.8534L22 14.6667L19.7933 12.8534C19.6513 12.7487 19.5359 12.6121 19.4564 12.4546C19.3769 12.2971 19.3354 12.1232 19.3354 11.9467C19.3354 11.7703 19.3769 11.5964 19.4564 11.4389C19.5359 11.2814 19.6513 11.1448 19.7933 11.0401C20.1099 10.7973 20.4977 10.6658 20.8966 10.6658C21.2956 10.6658 21.6834 10.7973 22 11.0401C22.3165 10.7973 22.7043 10.6658 23.1033 10.6658C23.5022 10.6658 23.89 10.7973 24.2066 11.0401C24.3486 11.1448 24.464 11.2814 24.5435 11.4389C24.623 11.5964 24.6645 11.7703 24.6645 11.9467C24.6645 12.1232 24.623 12.2971 24.5435 12.4546C24.464 12.6121 24.3486 12.7487 24.2066 12.8534Z" fill="#FF7E73"/>
<path d="M24.2066 11.04C23.9583 10.8501 23.6652 10.7276 23.3557 10.6844C23.0461 10.6412 22.7307 10.6787 22.4399 10.7933C22.5965 10.8521 22.7428 10.9354 22.8733 11.04C23.0152 11.1447 23.1306 11.2813 23.2101 11.4388C23.2897 11.5963 23.3311 11.7702 23.3311 11.9467C23.3311 12.1231 23.2897 12.297 23.2101 12.4545C23.1306 12.612 23.0152 12.7486 22.8733 12.8533L21.3333 14.12L21.9999 14.6667L24.2066 12.8533C24.3486 12.7486 24.4639 12.612 24.5435 12.4545C24.623 12.297 24.6644 12.1231 24.6644 11.9467C24.6644 11.7702 24.623 11.5963 24.5435 11.4388C24.4639 11.2813 24.3486 11.1447 24.2066 11.04Z" fill="#EA4335"/>
<path d="M28.6666 22.6667C28.6666 22.3131 28.8071 21.974 29.0571 21.7239C29.3072 21.4739 29.6463 21.3334 30 21.3334C30.3536 21.3334 30.6927 21.4739 30.9428 21.7239C31.1928 21.974 31.3333 22.3131 31.3333 22.6667V28.6667C31.3333 29.374 31.0523 30.0523 30.5522 30.5524C30.0521 31.0525 29.3739 31.3334 28.6666 31.3334H23.3333C22.626 31.3334 21.9478 31.0525 21.4477 30.5524C20.9476 30.0523 20.6666 29.374 20.6666 28.6667V18.0001C20.6666 17.6465 20.8071 17.3073 21.0572 17.0573C21.3072 16.8072 21.6463 16.6667 22 16.6667C22.3536 16.6667 22.6927 16.8072 22.9428 17.0573C23.1928 17.3073 23.3333 17.6465 23.3333 18.0001V21.3334C23.3333 20.9798 23.4738 20.6407 23.7238 20.3906C23.9739 20.1406 24.313 20.0001 24.6666 20.0001C25.0202 20.0001 25.3594 20.1406 25.6094 20.3906C25.8595 20.6407 26 20.9798 26 21.3334V22.0001C26 21.6465 26.1404 21.3073 26.3905 21.0573C26.6405 20.8072 26.9797 20.6667 27.3333 20.6667C27.6869 20.6667 28.0261 20.8072 28.2761 21.0573C28.5262 21.3073 28.6666 21.6465 28.6666 22.0001V22.6667Z" fill="#E1ECFF"/>
<path d="M28.6666 29.3334H23.3333C22.626 29.3334 21.9478 29.0525 21.4477 28.5524C20.9476 28.0523 20.6666 27.374 20.6666 26.6667V28.6667C20.6666 29.374 20.9476 30.0523 21.4477 30.5524C21.9478 31.0525 22.626 31.3334 23.3333 31.3334H28.6666C29.3739 31.3334 30.0521 31.0525 30.5522 30.5524C31.0523 30.0523 31.3333 29.374 31.3333 28.6667V26.6667C31.3333 27.374 31.0523 28.0523 30.5522 28.5524C30.0521 29.0525 29.3739 29.3334 28.6666 29.3334Z" fill="#B9D3FF"/>
<path d="M23.3333 21.3334V18.0001C23.3333 17.6465 23.1928 17.3073 22.9428 17.0573C22.6927 16.8072 22.3536 16.6667 22 16.6667C21.6463 16.6667 21.3072 16.8072 21.0571 17.0573C20.8071 17.3073 20.6666 17.6465 20.6666 18.0001V26.6667H3.33329C2.62605 26.6667 1.94777 26.3858 1.44767 25.8857C0.947578 25.3856 0.666626 24.7073 0.666626 24.0001V6.66675H27.3333V20.6667C26.9797 20.6667 26.6405 20.8072 26.3905 21.0573C26.1404 21.3073 26 21.6465 26 22.0001V21.3334C26 20.9798 25.8595 20.6407 25.6094 20.3906C25.3594 20.1406 25.0202 20.0001 24.6666 20.0001C24.313 20.0001 23.9739 20.1406 23.7238 20.3906C23.4738 20.6407 23.3333 20.9798 23.3333 21.3334ZM22 14.6667L24.2066 12.8534C24.3486 12.7487 24.464 12.6121 24.5435 12.4546C24.623 12.2971 24.6645 12.1232 24.6645 11.9467C24.6645 11.7703 24.623 11.5964 24.5435 11.4389C24.464 11.2814 24.3486 11.1448 24.2066 11.0401C23.89 10.7973 23.5022 10.6658 23.1033 10.6658C22.7044 10.6658 22.3165 10.7973 22 11.0401C21.6834 10.7973 21.2956 10.6658 20.8966 10.6658C20.4977 10.6658 20.1099 10.7973 19.7933 11.0401C19.6513 11.1448 19.5359 11.2814 19.4564 11.4389C19.3769 11.5964 19.3355 11.7703 19.3355 11.9467C19.3355 12.1232 19.3769 12.2971 19.4564 12.4546C19.5359 12.6121 19.6513 12.7487 19.7933 12.8534L22 14.6667ZM16 22.6667V18.6667H12V22.6667H16ZM16 14.6667V10.6667H12V14.6667H16ZM7.99996 22.6667V18.6667H3.99996V22.6667H7.99996ZM7.99996 14.6667V10.6667H3.99996V14.6667H7.99996Z" fill="#F2F6FC"/>
<path d="M4.66663 2.66675H3.33329C2.62605 2.66675 1.94777 2.9477 1.44767 3.4478C0.947578 3.94789 0.666626 4.62617 0.666626 5.33341V24.0001C0.666626 24.7073 0.947578 25.3856 1.44767 25.8857C1.94777 26.3858 2.62605 26.6667 3.33329 26.6667H11.3333M23.3333 2.66675H24.6666C25.3739 2.66675 26.0521 2.9477 26.5522 3.4478C27.0523 3.94789 27.3333 4.62617 27.3333 5.33341V18.6667" stroke="#435C3E" stroke-linejoin="round"/>
<path d="M7.33329 2.00008C7.33329 1.2637 6.73634 0.666748 5.99996 0.666748C5.26358 0.666748 4.66663 1.2637 4.66663 2.00008V3.33341C4.66663 4.06979 5.26358 4.66675 5.99996 4.66675C6.73634 4.66675 7.33329 4.06979 7.33329 3.33341V2.00008Z" stroke="#435C3E" stroke-linejoin="round"/>
<path d="M12.6667 2.00008C12.6667 1.2637 12.0697 0.666748 11.3333 0.666748C10.597 0.666748 10 1.2637 10 2.00008V3.33341C10 4.06979 10.597 4.66675 11.3333 4.66675C12.0697 4.66675 12.6667 4.06979 12.6667 3.33341V2.00008Z" stroke="#435C3E" stroke-linejoin="round"/>
<path d="M17.9999 2.00008C17.9999 1.2637 17.403 0.666748 16.6666 0.666748C15.9302 0.666748 15.3333 1.2637 15.3333 2.00008V3.33341C15.3333 4.06979 15.9302 4.66675 16.6666 4.66675C17.403 4.66675 17.9999 4.06979 17.9999 3.33341V2.00008Z" stroke="#435C3E" stroke-linejoin="round"/>
<path d="M23.3333 2.00008C23.3333 1.2637 22.7363 0.666748 22 0.666748C21.2636 0.666748 20.6666 1.2637 20.6666 2.00008V3.33341C20.6666 4.06979 21.2636 4.66675 22 4.66675C22.7363 4.66675 23.3333 4.06979 23.3333 3.33341V2.00008Z" stroke="#435C3E" stroke-linejoin="round"/>
<path d="M7.33325 2.66675H9.99992" stroke="#435C3E" stroke-linejoin="round"/>
<path d="M12.6666 2.66675H15.3333" stroke="#435C3E" stroke-linejoin="round"/>
<path d="M18 2.66675H20.6667" stroke="#435C3E" stroke-linejoin="round"/>
<path d="M0.666626 6.66675H27.3333" stroke="#435C3E" stroke-width="2" stroke-linejoin="round"/>
<path d="M8 10.6667H4V14.6667H8V10.6667Z" stroke="#34A853" stroke-linejoin="round"/>
<path d="M16 10.6667H12V14.6667H16V10.6667Z" stroke="#34A853" stroke-linejoin="round"/>
<path d="M8 18.6667H4V22.6667H8V18.6667Z" stroke="#34A853" stroke-linejoin="round"/>
<path d="M16 18.6667H12V22.6667H16V18.6667Z" stroke="#34A853" stroke-linejoin="round"/>
<path d="M23.3333 24.0001V18.0001C23.3333 17.6465 23.1928 17.3073 22.9428 17.0573C22.6927 16.8072 22.3536 16.6667 22 16.6667C21.6463 16.6667 21.3072 16.8072 21.0572 17.0573C20.8071 17.3073 20.6666 17.6465 20.6666 18.0001V28.6667C20.6666 29.374 20.9476 30.0523 21.4477 30.5524C21.9478 31.0525 22.626 31.3334 23.3333 31.3334H28.6666C29.3739 31.3334 30.0521 31.0525 30.5522 30.5524C31.0523 30.0523 31.3333 29.374 31.3333 28.6667V22.6667C31.3333 22.3131 31.1928 21.974 30.9428 21.7239C30.6927 21.4739 30.3536 21.3334 30 21.3334C29.6463 21.3334 29.3072 21.4739 29.0571 21.7239C28.8071 21.974 28.6666 22.3131 28.6666 22.6667V24.0001" stroke="#435C3E" stroke-linejoin="round"/>
<path d="M23.3333 24.0001V21.3334C23.3333 20.9798 23.4738 20.6406 23.7238 20.3906C23.9739 20.1405 24.313 20.0001 24.6666 20.0001C25.0202 20.0001 25.3594 20.1405 25.6094 20.3906C25.8595 20.6406 26 20.9798 26 21.3334V24.0001V22.0001C26 21.6464 26.1404 21.3073 26.3905 21.0573C26.6405 20.8072 26.9797 20.6667 27.3333 20.6667C27.6869 20.6667 28.026 20.8072 28.2761 21.0573C28.5261 21.3073 28.6666 21.6464 28.6666 22.0001V23.3334M24.2066 11.0401C23.89 10.7973 23.5022 10.6658 23.1033 10.6658C22.7043 10.6658 22.3165 10.7973 22 11.0401C21.6834 10.7973 21.2956 10.6658 20.8966 10.6658C20.4977 10.6658 20.1099 10.7973 19.7933 11.0401C19.6513 11.1448 19.5359 11.2814 19.4564 11.4389C19.3769 11.5964 19.3354 11.7703 19.3354 11.9467C19.3354 12.1232 19.3769 12.2971 19.4564 12.4546C19.5359 12.6121 19.6513 12.7487 19.7933 12.8534L22 14.6667L24.2066 12.8534C24.3486 12.7487 24.464 12.6121 24.5435 12.4546C24.623 12.2971 24.6645 12.1232 24.6645 11.9467C24.6645 11.7703 24.623 11.5964 24.5435 11.4389C24.464 11.2814 24.3486 11.1448 24.2066 11.0401Z" stroke="#435C3E" stroke-linejoin="round"/>
<path d="M20.6666 26.6667H16.6666" stroke="#435C3E" stroke-linejoin="round"/>
<path d="M15.3333 26.6667H12.6666" stroke="#435C3E" stroke-linejoin="round"/>
</svg>
