<svg width="22" height="17" viewBox="0 0 22 17" fill="none" xmlns="http://www.w3.org/2000/svg">
<path opacity="0.41" d="M10.6846 8.79639L10.999 9.05225L11.3145 8.79736L20.2607 1.56006L20.4844 1.85889L11.0996 9.39404L11.0781 9.41064L11.0684 9.41943C11.0619 9.41977 11.0541 9.42025 11.0439 9.42041C11.0313 9.42061 11.0178 9.42139 11 9.42139C10.9822 9.42139 10.9687 9.42061 10.9561 9.42041C10.9454 9.42024 10.9372 9.4198 10.9307 9.41943L10.9219 9.41064L10.9014 9.39404L1.37695 1.72217L1.59961 1.42432L10.6846 8.79639Z" fill="#3E5945" stroke="#C3B944"/>
<path d="M2.06268 0.795898H19.9377C20.7615 0.795898 21.5002 1.53454 21.5002 2.3584V14.7334C21.5002 15.5573 20.7615 16.2959 19.9377 16.2959C19.8451 16.2959 19.8071 16.2669 19.7932 16.2529C19.7792 16.239 19.7502 16.201 19.7502 16.1084C19.7502 16.0158 19.7792 15.9778 19.7932 15.9639C19.8071 15.9499 19.8451 15.9209 19.9377 15.9209C20.2576 15.9209 20.5625 15.8117 20.7892 15.585C21.0159 15.3583 21.1252 15.0533 21.1252 14.7334V2.3584C21.1252 2.03852 21.0159 1.73354 20.7892 1.50684C20.5625 1.28013 20.2576 1.1709 19.9377 1.1709H2.06268C1.74281 1.1709 1.43782 1.28013 1.21112 1.50684C0.984418 1.73354 0.875183 2.03852 0.875183 2.3584V14.7334C0.875183 15.0533 0.984418 15.3583 1.21112 15.585C1.43782 15.8117 1.74281 15.9209 2.06268 15.9209H17.1877C17.2803 15.9209 17.3183 15.9499 17.3322 15.9639C17.3461 15.9778 17.3752 16.0158 17.3752 16.1084C17.3752 16.201 17.3461 16.239 17.3322 16.2529C17.3183 16.2669 17.2803 16.2959 17.1877 16.2959H2.06268C1.23883 16.2959 0.500183 15.5573 0.500183 14.7334V2.3584C0.500183 1.53454 1.23883 0.795898 2.06268 0.795898Z" fill="#0C9753" stroke="#B43838"/>
</svg>
