<svg width="45" height="5" viewBox="0 0 45 5" fill="none" xmlns="http://www.w3.org/2000/svg">
<path opacity="0.88" d="M44.9581 1.3331C45.1789 1.91432 44.4904 2.26445 43.7613 2.50429C43.0641 2.73538 42.2508 2.90695 41.4636 2.95772C37.8616 3.18355 34.2247 3.25708 30.6489 3.5792C27.3606 3.87506 24.113 4.3705 20.8857 4.86769C18.8581 5.17931 17.4987 4.97273 16.7231 3.90132C16.4122 3.47241 16.4413 2.94896 16.3658 2.46403C16.3164 2.14891 16.3571 1.82854 16.3571 1.39437C14.954 1.62896 13.6556 1.77077 12.4559 2.06138C9.03976 2.89119 5.66434 3.78053 2.27149 4.6471C1.39423 4.87119 0.342678 4.67512 0.0783379 4.2392C-0.197622 3.78578 0.270057 3.39363 1.25189 3.15204C3.75296 2.5393 6.19302 1.82504 8.74057 1.29634C11.2416 0.778141 13.8269 0.389491 16.4093 0.0411087C17.9663 -0.168971 18.9249 0.445512 18.8639 1.44164C18.8349 1.93358 18.7768 2.42376 18.7594 2.9157C18.7419 3.40414 19.1108 3.54594 19.9155 3.42164C25.7106 2.5218 31.59 1.97209 37.5798 1.81628C40.0082 1.75326 42.4251 1.50642 44.9552 1.33485L44.9581 1.3331Z" fill="#C3B944"/>
</svg>
