<svg width="173" height="18" viewBox="0 0 173 18" fill="none" xmlns="http://www.w3.org/2000/svg">
<path opacity="0.88" d="M172.839 4.79916C173.688 6.89155 171.041 8.15203 168.238 9.01546C165.558 9.84737 162.431 10.465 159.404 10.6478C145.557 11.4608 131.575 11.7255 117.828 12.8851C105.186 13.9502 92.701 15.7338 80.2939 17.5237C72.499 18.6455 67.2726 17.9018 64.2909 14.0448C63.096 12.5007 63.2076 10.6163 62.9173 8.8705C62.7274 7.73607 62.8838 6.58274 62.8838 5.01975C57.4899 5.86427 52.498 6.37476 47.8858 7.42095C34.7529 10.4083 21.7762 13.6099 8.73262 16.7296C5.36004 17.5363 1.31741 16.8304 0.301166 15.2611C-0.759746 13.6288 1.03822 12.2171 4.81283 11.3473C14.428 9.14149 23.8087 6.57014 33.6026 4.66681C43.2178 2.80131 53.1569 1.40217 63.0848 0.147991C69.0706 -0.608295 72.7558 1.60384 72.5213 5.1899C72.4096 6.96088 72.1863 8.72555 72.1193 10.4965C72.0523 12.2549 73.4706 12.7654 76.564 12.3179C98.8431 9.07848 121.446 7.09954 144.473 6.53862C153.809 6.31174 163.101 5.4231 172.828 4.80547L172.839 4.79916Z" fill="#E74B3B"/>
</svg>
