<svg width="113" height="18" viewBox="0 0 113 18" fill="none" xmlns="http://www.w3.org/2000/svg">
<path d="M112.765 3.62626C111.66 3.94539 110.5 4.6775 109.463 4.52106C101.043 3.27585 93.413 6.39202 85.6535 8.77608C79.8261 10.5657 74.2889 11.3541 68.3443 8.27548C65.9121 7.01775 62.0663 7.86249 59.0662 8.58834C54.2451 9.75221 49.5412 11.498 44.8682 13.2188C40.4545 14.8394 36.621 13.6568 33.8493 10.3279C30.806 6.67359 27.2504 6.5547 23.4231 7.63097C16.6513 9.52695 10.6573 13.0874 5.08918 17.3862C3.35455 18.7253 0.268028 17.7616 0.00876083 15.5778C-0.0900077 14.7331 0.663108 13.2939 1.42239 12.9059C6.24353 10.4343 11.1202 8.0377 16.0957 5.89142C20.5403 3.97667 25.1824 2.05566 30.0776 3.55742C32.4913 4.30205 34.837 5.87266 36.7383 7.59969C39.152 9.79602 41.5903 9.577 44.2818 8.81986C50.3684 7.09909 56.4056 5.17183 62.5663 3.76393C64.7207 3.26959 67.4245 3.47609 69.4122 4.39593C73.8568 6.44834 78.147 6.36698 82.6287 4.99036C87.9683 3.34468 93.271 1.51127 98.6971 0.234766C101.068 -0.322139 103.716 0.266065 106.234 0.422499C107.512 0.503844 108.827 0.610209 110.031 0.998165C111.086 1.33606 112.012 2.08696 113 2.65638C112.926 2.97551 112.852 3.30087 112.772 3.62L112.765 3.62626Z" fill="#EB5757"/>
</svg>
