<svg width="15" height="20" viewBox="0 0 15 20" fill="none" xmlns="http://www.w3.org/2000/svg">
<path fill-rule="evenodd" clip-rule="evenodd" d="M7.50002 1.24571C4.0419 1.24571 1.15365 3.77819 1.15365 6.99196C1.15365 7.05713 1.15495 7.12195 1.15755 7.18641V7.21668C1.08788 8.89372 2.05972 11.0569 3.34483 13.13C4.61782 15.1831 6.14741 17.0688 7.08852 18.1657C7.13376 18.2214 7.19497 18.267 7.26674 18.2986C7.33852 18.3302 7.41864 18.3467 7.50002 18.3467C7.5814 18.3467 7.66152 18.3302 7.73329 18.2986C7.80507 18.267 7.86628 18.2214 7.91151 18.1657C8.85306 17.0688 10.3822 15.1831 11.6552 13.13C12.9403 11.0569 13.9122 8.89372 13.8429 7.21704C13.8425 7.20683 13.8425 7.19662 13.8429 7.18641C13.8451 7.12195 13.8464 7.05713 13.8464 6.99196C13.8464 3.77819 10.9581 1.24571 7.50002 1.24571ZM8.16592e-05 6.99196C8.16592e-05 3.33409 3.31108 0.295898 7.50002 0.295898C11.6885 0.295898 15 3.33373 15 6.99196C15 7.06141 14.9991 7.13085 14.9965 7.19994C15.0701 9.13376 13.9753 11.4771 12.6829 13.5619C11.3744 15.6721 9.81062 17.5987 8.85349 18.7134C8.70168 18.8932 8.49928 19.0401 8.26356 19.1415C8.02783 19.2429 7.76579 19.2959 7.4998 19.2959C7.23381 19.2959 6.97177 19.2429 6.73605 19.1415C6.50033 19.0401 6.29792 18.8932 6.14611 18.7134C5.18985 17.5987 3.62565 15.6721 2.31717 13.5619C1.02471 11.4775 -0.0704478 9.13376 0.0035434 7.19994C0.00121569 7.13063 6.1558e-05 7.0613 8.16592e-05 6.99196Z" fill="#B43838"/>
<path opacity="0.41" d="M7.5 3.7959C9.70939 3.79601 11.4999 5.58687 11.5 7.7959C11.5 10.0045 9.7091 11.7958 7.5 11.7959C5.29123 11.7959 3.5 10.005 3.5 7.7959C3.50011 5.58674 5.29058 3.7959 7.5 3.7959ZM7.5 3.9209C6.47237 3.9209 5.48646 4.32908 4.75977 5.05566C4.0331 5.78233 3.62506 6.76825 3.625 7.7959C3.625 8.82363 4.03305 9.80942 4.75977 10.5361C5.48648 11.2628 6.47227 11.6709 7.5 11.6709C8.52765 11.6708 9.51357 11.2628 10.2402 10.5361C10.9668 9.80944 11.375 8.82353 11.375 7.7959C11.3749 6.76825 10.9669 5.78233 10.2402 5.05566C9.51357 4.329 8.52765 3.92095 7.5 3.9209Z" fill="#C3B944" stroke="#C3B944"/>
</svg>
