<svg width="28" height="3" viewBox="0 0 28 3" fill="none" xmlns="http://www.w3.org/2000/svg">
<path d="M20.6632 2.49192C18.4739 2.49449 16.077 2.50991 13.8788 2.48985C13.609 2.4874 13.6274 2.45381 13.5517 2.44938C13.3447 2.43715 13.2201 2.47676 13.0693 2.47386C12.3359 2.45986 11.6499 2.45416 10.9304 2.44145C10.1893 2.42838 10.5399 2.32399 10.2824 2.29856C9.77925 2.24876 10.2072 2.38488 10.0094 2.41544C9.43266 2.40728 8.85074 2.39253 8.27292 2.3776C8.41398 2.36489 8.55508 2.35245 8.69768 2.34068C8.44584 2.33788 8.08539 2.31686 8.50713 2.28129C8.41391 2.27149 8.3269 2.26003 8.2311 2.25047C8.20484 2.30004 7.75894 2.30403 7.71818 2.33341C7.67749 2.36281 7.92819 2.35605 7.92664 2.35862C7.91002 2.39523 6.88164 2.34519 6.80748 2.3411C6.61142 2.33024 6.78331 2.26879 6.61652 2.27274C6.32966 2.27951 6.52076 2.40455 6.13244 2.23832C5.97795 2.29232 5.96448 2.26428 5.76886 2.26054C5.74311 2.26007 5.76309 2.29134 5.75176 2.29215C5.45567 2.31536 5.68327 2.25722 5.68172 2.25407C5.65483 2.20056 5.33709 2.22435 5.27015 2.21922C4.43019 2.1553 3.81473 2.11202 2.92841 2.09721C2.73681 2.09406 2.15326 2.11577 1.96786 2.10667C1.785 2.09769 1.88311 2.05914 1.78741 2.04063C1.634 2.13337 1.48766 2.14359 1.14327 2.0825C1.07493 2.11854 1.04771 2.11989 1 2.11533L0.886847 2.11742L0.884673 2C0.888672 1.95818 0.897213 1.90063 0.890892 1.78587C0.879682 1.5814 0.79853 1.22505 0.867698 1C0.861399 1.25803 0.894632 1.23131 0.914696 1.52178C0.917581 1.56376 0.919481 1.7776 0.926367 2L0.927755 2.07497L1 2.07363C1.28983 2.06466 1.59421 2.04722 1.55175 2.00809C1.51262 1.97205 1.17843 2.00516 1.16551 1.99851C1.09032 1.95978 1.27684 1.91219 1.44216 1.92887C1.40096 1.93669 1.35132 1.94461 1.30703 1.95243C1.67836 2.00084 1.423 1.81491 1.70522 1.97739C1.74011 1.99732 1.72659 2.01811 1.78411 2.03928C1.79594 2.03052 1.72556 2.00881 1.78617 2.00492C1.848 2.001 1.96539 2.04223 1.9829 2.00748C2.00906 1.95696 1.75292 1.97687 1.73364 1.97391C1.73344 1.97422 1.73323 1.97453 1.73303 1.97483C1.56261 1.948 1.91852 1.94494 1.93552 1.94016C2.04561 1.90868 1.97053 1.88444 2.13574 1.85844C2.23 1.84362 2.47006 1.85235 2.55865 1.84757C2.64667 1.84267 2.50973 1.81877 2.56895 1.81364C2.62818 1.8085 2.70192 1.82667 2.77144 1.82072C2.8012 1.81809 2.79968 1.79144 2.81408 1.7905C2.96855 1.78025 2.86722 1.8357 3.00731 1.83231C3.09806 1.83006 3.40264 1.77837 3.1927 1.76298C3.29361 1.75761 3.39202 1.75369 3.49242 1.74949C3.42909 1.74156 3.36366 1.73617 3.30188 1.72684C3.49081 1.73954 3.57629 1.69392 3.69471 1.69053C3.81316 1.68714 3.91934 1.74189 4.04963 1.71519C4.32775 1.65838 3.63909 1.68462 3.5536 1.67448C3.52027 1.67049 3.64822 1.6276 3.66793 1.62638C3.75545 1.62102 3.85898 1.65168 3.92645 1.65031C4.16799 1.64517 4.31588 1.6047 4.54608 1.59653C5.32994 1.56877 6.30233 1.54626 7.04499 1.53739C7.32156 1.53412 7.48797 1.57963 7.61209 1.57834C7.90248 1.57531 7.93805 1.53565 8.19135 1.53354C8.56834 1.53028 9.09944 1.5649 9.41413 1.57236C9.63197 1.5775 9.82919 1.53912 9.88585 1.53818C10.6733 1.52442 11.6313 1.52528 12.2838 1.52482C12.5907 1.52458 12.7365 1.56771 12.7998 1.56644C13.0723 1.56108 12.9992 1.52421 13.2201 1.52793C13.3394 1.52991 13.3617 1.5653 13.3777 1.56669C13.5183 1.57835 13.5462 1.53213 13.656 1.53061C14.2868 1.52187 14.8945 1.55212 15.5192 1.55655C15.5645 1.5569 15.5605 1.57738 15.5898 1.57633C15.7159 1.5713 15.6573 1.53906 15.789 1.53672C16.063 1.5317 16.3444 1.53703 16.6348 1.54111C16.6636 1.54152 16.6765 1.56784 16.7424 1.56785C16.8083 1.56785 16.8582 1.54289 16.9617 1.54429C17.2321 1.5479 17.499 1.57775 17.7853 1.57938C17.8327 1.57962 17.8914 1.54791 17.9625 1.54825C18.1855 1.5493 18.5156 1.57809 18.7067 1.57914C19.3371 1.5824 19.9186 1.56436 20.5125 1.56412C20.652 1.56414 20.7756 1.59351 20.8482 1.59421C21.0119 1.59572 20.8884 1.56796 21.0542 1.56785C22.4087 1.56715 23.7684 1.57977 25.1389 1.57755C25.6771 1.57673 26.3322 1.54801 26.8523 1.55594C26.9135 1.5569 26.9606 1.56066 27 1.56557L26.5656 2C26.578 1.90007 26.5978 1.84886 26.5981 1.73919C26.5985 1.46633 26.5493 1.41685 26.5444 1.12903C26.5437 1.08703 26.5448 1.0439 26.547 1L27 1.45303C26.8039 1.44322 26.5924 1.41088 26.3971 1.41335C26.1582 1.41639 26.0479 1.4641 25.7734 1.46981C25.5473 1.47447 25.2316 1.45282 24.9855 1.45632C22.7297 1.48852 20.5084 1.50812 18.2388 1.47079C17.4379 1.45761 16.5494 1.46446 15.7217 1.41757C15.644 1.41313 15.7629 1.36705 15.5137 1.37673C15.3798 1.38198 15.1928 1.42168 14.8833 1.42367C13.0431 1.43533 11.0803 1.35041 9.20922 1.36721C6.40649 1.39253 3.5018 1.72039 1.06628 1.24062C0.946812 1.21706 1.0116 1.10161 1.08317 1.06881C1.14959 1.09225 1.211 1.12009 1.28051 1.14657C1.36804 1.00231 1.35261 1.03987 1.67705 1.05282C1.87679 1.06086 1.71724 0.999163 1.82372 0.981651C1.96174 0.959021 2.6098 0.887762 2.48516 0.983299C2.52533 0.966736 2.56241 0.950868 2.60155 0.934654C3.07072 0.920189 3.52655 0.89627 3.98542 0.868858C4.06468 0.864066 4.06834 0.834089 4.15021 0.829307C4.37011 0.816247 4.54469 0.835941 4.77128 0.832908C4.89437 0.831275 4.91145 0.796634 5.07265 0.79885C5.23376 0.801081 5.23023 0.847844 5.45003 0.797019C5.30686 0.738345 5.94552 0.780919 6.17266 0.777305C6.20562 0.776838 6.47597 0.724127 6.61967 0.730186C6.76385 0.736134 6.98274 0.769807 7.20572 0.750694C7.31027 0.741712 7.37371 0.70066 7.48649 0.698325C7.5658 0.696692 7.66107 0.733181 7.76149 0.734702C7.86187 0.736218 8.07909 0.706265 8.11889 0.705772C8.26256 0.703789 8.10406 0.729443 8.20232 0.730735C8.67663 0.736567 9.22773 0.750315 9.69536 0.733054C9.75285 0.730962 9.67331 0.700736 9.68094 0.699729C10.0712 0.662644 9.86291 0.702025 9.9683 0.729087C10.0704 0.755255 10.8175 0.740981 10.823 0.688437C10.8459 0.754234 11.012 0.70398 11.0551 0.702048C11.223 0.69459 11.1901 0.751516 11.3528 0.733909C11.4125 0.727496 11.2962 0.689019 11.3604 0.690146C11.519 0.692946 11.6618 0.75476 11.8729 0.760947C11.9239 0.762464 11.9405 0.734929 12.0311 0.735862C12.1219 0.736809 12.5023 0.770495 12.3267 0.712424C12.5574 0.758961 12.6039 0.733419 12.8722 0.734702C12.9402 0.735093 13.0277 0.779467 13.1723 0.765708C13.2213 0.761039 13.2198 0.718267 13.2935 0.717918C13.4618 0.716996 13.6205 0.761273 13.8342 0.763023C14.2338 0.766404 14.6593 0.735278 15.0759 0.74636C15.1892 0.749401 15.1609 0.792404 15.3256 0.793235C15.3498 0.793235 15.5482 0.756047 15.662 0.759544C15.7305 0.761643 16.0854 0.787779 16.157 0.789878C16.2753 0.793244 16.2965 0.751654 16.3613 0.759788C16.5488 0.783234 16.3984 0.844455 16.624 0.760703C16.6981 0.80713 16.83 0.802485 16.8722 0.859642C16.9489 0.797006 17.0484 0.857185 17.1972 0.836204C17.3461 0.815207 17.4681 0.693892 17.5042 0.824424C17.5737 0.80856 17.8699 0.781485 17.9199 0.779502C18.0671 0.773908 17.9884 0.810015 18.0995 0.805137C18.1191 0.804321 18.0986 0.779631 18.2241 0.782066C18.3065 0.783699 18.9103 0.785214 18.9463 0.788597C19.3577 0.82725 18.7222 0.813083 18.6332 0.839805C18.6175 0.832787 18.602 0.825745 18.5852 0.818809C18.4035 0.807151 18.5069 0.862929 18.5894 0.875877C18.6718 0.888821 18.8257 0.863972 18.8942 0.882286C18.9284 0.891481 18.9072 0.958356 18.804 0.950279C18.9144 0.970878 18.7636 0.992628 18.8073 1.01199C18.8553 1.03321 19.3516 1.03974 19.3542 1.00289C19.2615 1.00161 19.1462 1.00288 19.0524 1.00137C18.9298 0.937325 19.3022 0.71862 19.6436 0.805992C19.8913 0.869212 19.483 0.919484 20.069 0.866417C19.9789 0.86385 19.9027 0.857869 19.8208 0.855186C19.8121 0.807158 19.9449 0.859967 20.0134 0.844688C20.0463 0.837217 19.8435 0.803209 20.0196 0.791892C20.171 0.860572 20.2875 0.791488 20.5413 0.790672C20.4708 0.80292 20.4001 0.815106 20.3296 0.827354C20.7586 0.877162 19.7621 0.893593 20.5963 0.921471C20.496 0.923684 20.3961 0.923095 20.2952 0.926475C20.3441 0.951677 20.2658 1.02565 20.3096 1.04128C20.4244 1.08231 20.5943 1.05758 20.7344 1.06118C20.7957 1.0627 20.7576 1.08267 20.7628 1.08279C20.8467 1.085 20.8282 1.05572 20.9018 1.05386C20.9945 1.05153 21.2622 1.07999 21.3056 1.07674C21.4179 1.06846 21.2309 1.01069 21.2417 1.00637C21.3133 0.978387 21.4595 1.00159 21.4518 0.964989C21.1 0.99018 20.0862 0.95784 21.0034 0.897301C20.7505 0.838159 20.8235 0.756623 21.1871 0.750205C21.4879 0.744839 21.2938 0.777509 21.4504 0.813438C21.4706 0.817936 21.8735 0.835114 21.8941 0.809715C21.878 0.868213 22.0091 0.920016 21.9211 0.98037C21.9082 0.989235 21.7429 0.985737 21.8006 1.03426C21.8294 1.05864 21.9122 1.11169 21.8988 1.14272C21.9328 1.12115 21.9684 1.09687 22.0029 1.07436C22.2506 1.06807 22.2858 1.09131 22.4212 1.13155C22.4151 1.11476 22.2899 1.04417 22.48 1.06564C22.4897 1.06692 22.4981 1.09225 22.5947 1.10482C22.7899 1.13001 22.8306 1.13785 22.6808 1.21224C23.085 1.16981 23.1721 1.25272 23.5866 1.22848C23.5042 1.13284 23.3584 1.15652 22.9789 1.17495C22.9624 1.15221 22.9547 1.12969 22.9377 1.10671C23.4429 1.15827 23.1932 1.15302 23.4794 1.10684C23.5495 1.09552 23.923 1.10763 23.7983 1.04324C23.7689 1.02809 23.5369 1.02983 23.5635 1.00594C23.5686 1.0014 23.8507 0.989825 23.8756 0.995995C24.1877 1.07217 23.6299 1.12526 24.4894 1.0975C24.5131 1.09668 24.5214 1.06884 24.5677 1.06496C24.6547 1.05773 24.6558 1.08999 24.7335 1.08254C24.8113 1.07508 24.919 1.0317 25.0359 1.0718C25.2497 1.14482 24.7455 1.18682 24.5209 1.14809C24.4298 1.24352 26.0341 1.24562 26.1335 1.23745C26.5675 1.20188 25.8452 1.22241 25.808 1.19595C25.7925 1.18475 25.8002 1.04281 25.6174 1.13491C25.5634 1.16221 25.7894 1.19817 25.6545 1.21322C25.5196 1.22827 25.5731 1.18647 25.5633 1.18356C25.5297 1.17356 25.3862 1.18906 25.3676 1.18313C25.0812 1.09319 25.1075 0.957288 25.4871 1.15804C25.6524 1.11267 25.2729 1.04034 25.4784 1.00954C25.7282 0.972115 25.9105 1.03684 25.9419 1.03976C26.3183 1.07427 25.8843 0.979783 26.344 1.00997C26.6 1.02677 25.9609 1.07286 26.5455 1.06667C27.0347 1.06142 26.7705 1.02853 26.806 0.953758C26.8144 0.936264 27.0825 0.914811 26.7175 0.922508C26.7072 0.941985 26.6877 0.967655 26.6645 0.985619C26.575 0.971398 26.4257 0.873914 26.3782 0.870506C26.1459 0.854292 26.1571 0.90489 26.0202 0.845298C26.118 0.910491 25.9588 0.871207 25.899 0.884971C25.6772 0.9357 25.9681 0.95456 25.4702 0.889366C25.5351 0.919928 25.5938 0.949924 25.6566 0.98037C25.5969 0.981419 25.5371 0.982494 25.4774 0.983544C25.3883 0.916238 25.071 0.924845 25.3583 0.857078C25.0128 0.837835 24.8731 0.852507 24.7974 0.904869C24.783 0.914865 24.7311 0.91886 24.6701 0.919823C24.6816 0.934547 24.6964 0.980039 24.6868 0.985619C24.6008 1.03469 24.4675 0.949919 24.5129 0.917564C24.4702 0.916016 24.4365 0.9142 24.4245 0.913414C24.3489 0.908389 24.4971 0.879132 24.4359 0.869102C24.4157 0.865843 24.2027 0.872208 24.1986 0.860313C24.1729 0.78406 24.5234 0.839075 23.8195 0.794761C23.8025 0.864168 24.1295 0.848907 24.0455 0.92263C23.9554 1.00183 23.7715 0.895591 23.7314 0.99276C23.7164 0.976784 23.7098 0.963462 23.697 0.945274C23.4122 0.987611 23.4084 0.906683 23.3214 0.888817C23.1525 0.853938 22.3759 0.859176 23.0732 0.929283C22.9712 0.936282 22.8671 0.939519 22.7657 0.945702C22.7425 0.80062 22.8043 0.858365 22.3156 0.836204C22.2079 0.831305 22.1729 0.767496 22.0674 0.843284C22.0817 0.768942 21.7633 0.813854 21.7336 0.804832C21.5431 0.74616 22.2506 0.66449 22.3413 0.795921C22.4608 0.744749 22.4603 0.812395 22.5937 0.803428C22.7863 0.79048 22.813 0.777306 23.0417 0.827232C23.2668 0.756891 22.1606 0.796285 22.8312 0.702964C23.3156 0.635567 25.4876 0.589695 27 0.564139L27.4276 0.556219L27.4359 1C27.4425 1.39091 27.4477 1.73775 27.4516 2L27.4598 2.44311L27 2.45163C26.8721 2.45353 26.7643 2.45512 26.6814 2.4564C25.0307 2.48171 24.1629 2.49826 22.6801 2.49406C22.5339 2.49371 21.4298 2.50045 21.6592 2.41917C21.6922 2.4075 22.1671 2.37659 21.7597 2.31278C21.8426 2.35046 21.6031 2.37492 21.583 2.37888C21.1221 2.46894 21.3889 2.49099 20.6632 2.49192ZM18.5121 1.76694C19.4591 1.78549 18.7634 1.73115 18.9601 1.60843C18.8385 1.60808 18.7174 1.60775 18.5959 1.6074C18.6278 1.6151 18.6593 1.62277 18.6913 1.63047C18.6914 1.63047 18.6915 1.63047 18.6917 1.63047C18.6319 1.67596 18.5718 1.72146 18.5121 1.76694ZM3.02976 1.68479C3.06671 1.66863 3.10323 1.65244 3.14326 1.63663C3.26839 1.64165 3.39304 1.64657 3.51817 1.65159C3.50324 1.66255 3.48881 1.67364 3.47388 1.68461C3.32585 1.68414 3.17829 1.68363 3.02976 1.68479ZM24.3885 1.16586C24.2113 1.12095 24.2273 1.20109 23.992 1.16457C24.0208 1.22371 24.0528 1.28156 24.0832 1.34011C24.2624 1.33136 24.3031 1.30887 24.4977 1.32333C24.475 1.30432 24.4518 1.2852 24.4297 1.26608C24.3973 1.27015 24.3628 1.27479 24.3314 1.27841C24.2815 1.22522 24.5925 1.21728 24.3891 1.16573C24.3889 1.16577 24.3887 1.16582 24.3885 1.16586ZM22.5731 1.18966C22.4778 1.18196 22.1003 1.15302 22.0488 1.17751C21.8742 1.26057 22.9392 1.20786 22.1543 1.2817C22.1579 1.29335 22.1543 1.30477 22.1543 1.31631C22.2974 1.32039 22.4402 1.32391 22.5844 1.32717C22.5767 1.28122 22.5818 1.23585 22.5731 1.18966ZM21.9375 1.76182C22.084 1.76822 22.782 1.72915 22.5545 1.67655C22.4875 1.66115 22.1759 1.7364 22.0574 1.73313C21.9807 1.73102 22.0667 1.68977 21.9153 1.70493C21.922 1.72312 21.9261 1.74328 21.9379 1.76169C21.9378 1.76174 21.9377 1.76178 21.9375 1.76182ZM21.6629 2.00187C21.8143 1.99452 21.9678 1.98521 22.1202 1.97739C22.009 1.93039 21.7901 1.96058 21.7773 1.89445C21.819 1.88943 21.8602 1.88445 21.9019 1.87943C21.9338 1.89389 21.9652 1.90837 21.9966 1.92283C22.1275 1.8869 22.0482 1.86905 22.2918 1.87943C22.1445 1.77946 22.1172 1.72581 21.7 1.82694C21.7788 1.7727 21.7046 1.59597 21.4734 1.72227C21.4302 1.74571 21.6108 1.76138 21.6129 1.76511C21.6407 1.81152 21.5404 1.84114 21.5702 1.88499C21.5836 1.90482 21.6938 1.90451 21.7103 1.93204C21.7179 1.94547 21.6131 1.98379 21.6629 2.00187ZM21.3612 1.76652C21.408 1.73841 21.2479 1.67169 21.1088 1.68522C20.892 1.70621 21.2339 1.76967 21.3612 1.76652ZM3.02893 1.68485C3.02921 1.68483 3.02948 1.68481 3.02976 1.68479C3.02962 1.68485 3.02948 1.68491 3.02935 1.68497C3.02921 1.68493 3.02907 1.68489 3.02893 1.68485ZM23.0644 1.22219C22.9521 1.24609 22.7859 1.24261 22.7982 1.2806C22.7436 1.27314 22.6884 1.26579 22.6338 1.25832C22.6344 1.26975 22.6354 1.2812 22.6359 1.2925C22.8002 1.29962 22.9639 1.30676 23.1282 1.31399C23.1076 1.28343 23.0886 1.25275 23.0644 1.22219ZM21.2747 1.19558C21.0682 1.19174 21.2413 1.24343 21.196 1.2684C21.1507 1.29336 20.9667 1.27305 20.9884 1.30886C21.1099 1.31026 21.2367 1.31167 21.3598 1.31295C21.3273 1.27399 21.3047 1.23431 21.2743 1.19558C21.2744 1.19558 21.2746 1.19558 21.2747 1.19558ZM14.6468 1.72623C14.7868 1.73743 14.7297 1.77688 15.0062 1.73069C15.006 1.73069 15.0058 1.73069 15.0056 1.73069C14.7425 1.69838 14.4037 1.66959 14.1133 1.70084C14.2909 1.74246 14.4264 1.70874 14.6468 1.72623ZM24.8783 1.28225C24.9375 1.25099 24.662 1.22489 24.6013 1.25393C24.5029 1.30094 24.7882 1.32973 24.8783 1.28225ZM8.98916 2.00309C8.77608 2.09932 9.17982 2.20733 9.60261 2.16068C9.63918 2.1566 9.36623 2.126 9.44708 2.10722C9.45526 2.10537 9.60509 2.10766 9.64216 2.09428C9.67924 2.08086 9.6403 2.04972 9.70107 2.03666C9.80772 2.01383 10.0487 2.05613 10.1285 2.02616C10.139 2.02214 9.98957 1.9805 9.9802 1.97892C9.82673 1.95373 9.67886 2.00816 9.65514 2.00852C9.53308 2.01039 9.55153 1.96771 9.52062 1.95768C9.46242 1.93881 9.35994 1.95767 9.35274 1.95628C9.1675 1.91885 9.59077 1.92956 9.64793 1.91416C9.80189 1.87264 9.65935 1.83403 10.0286 1.81058C10.0637 1.80838 10.4834 1.81088 9.95445 1.7631C10.9931 1.66349 9.43257 1.70644 9.26313 1.72837C9.18502 1.73854 9.30329 1.77922 9.25592 1.79752C9.14777 1.83939 8.96341 1.84678 8.97989 1.9058C9.01545 2.02989 9.25757 1.94858 9.42443 1.96946C9.40692 1.99641 9.40022 2.02269 9.36778 2.04905C9.41773 2.01359 9.00461 1.99585 8.98916 2.00285C8.98916 2.00293 8.98916 2.00301 8.98916 2.00309ZM11.6185 1.8613C11.8518 1.89875 11.8353 1.82042 12.049 1.86521C12.2375 1.79487 11.8657 1.7996 11.8224 1.79563C11.6247 1.7779 11.6292 1.70142 11.4269 1.72495C11.4964 1.77021 11.5531 1.81593 11.6185 1.8613ZM9.58922 1.82902C9.74525 1.78936 9.46603 1.79003 9.45471 1.78245C9.33141 1.702 10.1675 1.71763 9.58922 1.82902ZM22.8464 1.91941C22.9256 1.92209 22.8753 1.88412 22.9452 1.8729C23.0153 1.86159 23.2547 1.89409 23.2487 1.87046C23.2425 1.84678 22.8038 1.78537 23.2441 1.77207C23.2292 1.75878 23.2342 1.74886 23.227 1.73685C23.106 1.7365 22.9839 1.73592 22.8628 1.73557C22.9293 1.77383 22.9974 1.81408 23.0612 1.85105C22.9932 1.8815 22.955 1.84244 22.9514 1.84244C22.9514 1.84249 22.9514 1.84253 22.9514 1.84257C22.8248 1.84563 22.6683 1.91344 22.8464 1.91941ZM16.605 1.80021C16.5813 1.89528 16.7682 1.7891 16.8449 1.77732C16.9217 1.76558 17.0271 1.80077 16.9875 1.75986C16.8634 1.73164 16.6075 1.7896 16.605 1.80033C16.605 1.80029 16.605 1.80025 16.605 1.80021ZM12.8859 1.86112C13.0815 1.83804 13.0505 1.81333 13.2897 1.84153C13.2804 1.81855 13.2712 1.79507 13.2619 1.77244C13.0719 1.77197 13.0852 1.83868 12.8653 1.81187C12.8293 1.80743 12.9065 1.75415 12.7438 1.77128C12.7912 1.79972 12.8391 1.83128 12.8859 1.86112ZM13.8551 1.77592C13.6306 1.77942 13.4525 1.96538 13.8661 1.88151C13.9274 1.86897 14.024 1.77323 13.8551 1.77592ZM20.7751 1.92411C21.1571 1.92947 20.7231 1.89946 20.6237 1.87089C21.5129 1.84803 20.5233 1.87871 20.4346 1.78367C20.3259 1.81073 20.1226 1.87262 20.3485 1.8892C20.4427 1.89608 20.4083 1.86778 20.414 1.8679C20.5875 1.8749 20.5665 1.92119 20.7751 1.92411ZM11.2131 1.86588C11.2275 1.86448 11.2049 1.83238 11.2508 1.82597C11.2967 1.8196 11.4005 1.84206 11.4108 1.82236C11.4211 1.80254 11.2127 1.78717 11.1488 1.80161C11.0849 1.81619 11.0828 1.87824 11.2131 1.86588ZM12.6789 1.94498C12.8698 1.92188 12.5577 1.80362 12.5162 1.80418C12.1516 1.81036 12.6897 1.90754 12.6789 1.94498ZM19.8881 2.12498C20.3485 2.0649 20.0117 1.96051 19.7233 1.89799C19.6852 1.91069 19.6461 1.92342 19.6086 1.93601C19.7816 1.85879 20.0849 1.78246 19.4102 1.84977C19.7795 1.86794 19.4702 1.88869 19.4679 1.89304C19.4272 2.03489 19.9742 1.96902 19.8877 2.12498C19.8878 2.12498 19.888 2.12498 19.8881 2.12498ZM10.5924 1.83207C10.392 1.83254 9.87103 1.85704 10.1141 1.91886C10.2737 1.88994 10.4328 1.86099 10.5924 1.83207ZM27.1167 1.57398C27.152 1.4102 27.1514 1.25924 27.1491 1.05735C27.0976 1.23913 27.0917 1.11966 27.0791 1.05838C27.0602 0.96541 27.0617 1.19061 27.0583 1.19124C27.0094 1.18712 27.0018 1.04352 27.003 1.37046C26.9859 1.28963 26.9688 1.20986 26.9519 1.12903C26.9497 1.37824 26.9178 1.43692 26.8788 1.59499C26.974 1.44152 26.9144 1.64359 26.9618 1.82694C26.9855 1.91845 27.0986 1.65729 27.1167 1.57336C27.1167 1.57357 27.1167 1.57377 27.1167 1.57398ZM20.3639 2.14408C20.4113 2.12694 20.4547 2.10374 20.5005 2.08414C20.5505 2.08228 20.6005 2.08064 20.6505 2.07877C20.6566 2.09393 20.6618 2.10979 20.669 2.12437C20.7348 2.12878 20.7092 2.10767 20.7287 2.10569C20.7287 2.10577 20.7287 2.10585 20.7287 2.10593C21.0093 2.07795 21.1242 2.0811 21.3441 2.12797C21.3441 2.08152 21.3441 2.03507 21.3441 1.98862C21.2946 1.99305 21.2447 1.99737 21.1953 2.00169C21.1691 2.02664 21.1427 2.05162 21.1164 2.07658C21.0593 2.06281 21.0026 2.04914 20.9455 2.03538C20.8997 2.04435 20.8446 2.0538 20.805 2.06254C20.5768 1.93271 21.0953 2.02091 21.1 1.96702C21.103 1.93237 20.5809 1.93389 20.5057 1.9578C20.4948 1.9613 20.6077 2.05797 20.4167 2.00761C20.3868 1.99967 20.3763 1.79053 20.1703 1.95988C20.1409 1.9839 20.2435 2.11383 20.3639 2.14408ZM22.2599 2.21153C21.9663 2.07773 23.0498 2.21921 22.5823 2.10911C22.7157 2.04764 22.6909 2.04844 22.5565 1.99387C22.5447 1.98898 22.6375 1.97209 22.6297 1.96995C22.504 1.93985 22.3526 1.95581 22.3516 1.9011C22.3176 1.90401 22.2856 1.90661 22.2517 1.90952C22.3932 1.96107 22.1681 1.99572 22.0811 2.03922C22.0415 2.05893 22.1326 2.06501 22.0992 2.08225C22.0869 2.08855 21.9596 2.07598 21.9544 2.09403C21.9436 2.13486 22.0235 2.19004 22.159 2.22013C22.159 2.22017 22.159 2.22021 22.159 2.22025C22.1929 2.21757 22.2259 2.21432 22.2599 2.21153ZM15.9857 2.10038C15.9358 2.02642 15.7355 2.00525 16.1203 1.96909C16.1012 1.95453 16.0816 1.94008 16.0626 1.92551C15.9977 1.9268 15.9348 1.92807 15.8689 1.92924C15.6712 2.14712 15.3102 1.90123 15.5414 2.05576C15.5666 2.07256 15.7205 2.05379 15.5686 2.0994C15.5688 2.09944 15.569 2.09948 15.5692 2.09953C15.7814 2.08553 15.8081 2.05932 15.9857 2.10038ZM17.4057 2.04881C17.8949 1.89319 16.7296 1.96198 16.9242 2.00327C16.9418 2.00701 17.4438 1.97357 17.4057 2.04881ZM13.4796 2.18424C13.699 2.18692 13.7135 2.10296 13.6914 2.07273C13.6692 2.04241 13.5173 2.07305 13.4977 2.06828C13.4339 2.05253 13.5693 2.04213 13.4864 2.02055C13.459 2.01354 13.0769 1.98361 13.0594 1.98722C12.9622 2.0073 13.1043 2.07658 13.0765 2.08451C12.9859 2.11051 12.8628 2.07447 12.8365 2.11131C12.7799 2.1899 13.0093 2.1074 13.0481 2.10606C13.165 2.10232 13.1548 2.14657 13.2423 2.15543C13.3298 2.16428 13.387 2.14912 13.4642 2.15226C13.4899 2.15331 13.4685 2.18396 13.4796 2.18424ZM14.2049 2.00693C13.9758 2.07049 14.5336 2.13961 14.5998 2.12473C14.7945 2.08052 14.3146 1.97661 14.2049 2.00693ZM21.5249 2.00962C21.3154 2.05569 21.8035 2.09299 21.9431 2.07444C21.9172 2.05529 21.597 1.99376 21.5249 2.00962ZM19.7604 2.12473C19.953 2.11039 19.6976 2.00658 19.5369 2.00822C19.4427 2.07643 19.5313 2.06291 19.6364 2.06571C19.7413 2.06854 19.6101 2.13591 19.7604 2.12473ZM11.1004 2.10838C11.1419 2.10946 11.8117 2.05307 11.4269 2.02964C11.3975 2.02789 10.9287 2.03782 10.8932 2.04832C10.8217 2.06955 10.9933 2.10534 11.1004 2.10838ZM18.8365 2.2255C18.9385 2.16649 19.0388 2.16728 18.945 2.098C18.9449 2.098 18.9448 2.098 18.9446 2.098C19.2026 2.07678 19.2141 2.21853 19.2697 2.21549C19.4642 2.20485 19.2799 2.10397 19.4019 2.07084C19.1182 2.10198 19.1996 2.03396 18.9838 2.02964C18.9354 2.02871 18.7416 2.06933 18.7133 2.09464C18.685 2.11997 18.784 2.19587 18.8365 2.2255ZM10.1543 2.12309C10.3803 2.1457 10.5873 2.05006 10.2737 2.03489C10.1208 2.02742 10.0162 2.10932 10.1543 2.12309ZM22.247 0.852989C22.2815 0.878065 22.317 0.903036 22.3541 0.927879C22.2707 0.933943 22.1872 0.940132 22.1038 0.946312C22.1697 0.93838 22.2357 0.930568 22.3022 0.922752C22.1456 0.914003 22.074 0.868387 22.2466 0.852989C22.2467 0.852989 22.2468 0.852989 22.247 0.852989ZM16.673 0.833885C16.6029 0.809738 16.4649 0.88451 16.4824 0.890343C16.6143 0.933806 16.7702 0.867365 16.673 0.833885ZM21.8345 2.23673C22.0949 2.24719 21.9159 2.12562 21.7562 2.11729C21.8539 2.14054 21.6868 2.23079 21.8345 2.23673ZM18.6332 0.839805C18.6566 0.850257 18.6802 0.860709 18.7064 0.871177C18.624 0.856643 18.6097 0.846868 18.6332 0.839805ZM11.2069 2.21574C11.2466 2.22507 11.5406 2.23277 11.5804 2.22123C11.6628 2.19697 11.4335 2.12985 11.2986 2.15049C11.2836 2.15271 11.1673 2.2064 11.2075 2.21574C11.2073 2.21574 11.2071 2.21574 11.2069 2.21574ZM21.8947 0.806419C21.8952 0.807583 21.8949 0.808693 21.8941 0.809715C21.8944 0.80863 21.8943 0.807508 21.8947 0.806419ZM10.8207 0.682883C10.8223 0.684769 10.8232 0.686641 10.823 0.688437C10.8224 0.686673 10.8211 0.684817 10.8207 0.682883ZM13.2804 2.31895C13.3783 2.43478 13.6038 2.37317 13.4256 2.3159C13.4157 2.31289 13.3042 2.31918 13.2804 2.31895Z" fill="#C3B944"/>
</svg>
