<svg width="19" height="20" viewBox="0 0 19 20" fill="none" xmlns="http://www.w3.org/2000/svg">
<path opacity="0.41" d="M11.9451 2.0459C13.2166 2.38786 14.3759 3.0579 15.3069 3.9889C16.2379 4.91991 16.9079 6.07919 17.2499 7.35065" stroke="#C3B944" stroke-width="1.5" stroke-miterlimit="10" stroke-linejoin="round"/>
<path opacity="0.41" d="M11.1691 4.94482C11.9318 5.15001 12.6272 5.55198 13.1857 6.11047C13.7442 6.66896 14.1462 7.36437 14.3514 8.12707" stroke="#C3B944" stroke-width="1.5" stroke-miterlimit="10" stroke-linejoin="round"/>
<path d="M5.67 9.99754C6.44775 11.5881 7.73683 12.8717 9.33075 13.6425C9.44746 13.6978 9.57657 13.7217 9.70534 13.7119C9.83411 13.702 9.95807 13.6587 10.065 13.5863L12.4125 12.0218C12.5162 11.9526 12.6355 11.9103 12.7596 11.8987C12.8838 11.8872 13.0088 11.9068 13.1235 11.9558L17.5148 13.8383C17.6639 13.9017 17.7884 14.0118 17.8696 14.152C17.9508 14.2923 17.9842 14.4551 17.9647 14.616C17.8258 15.702 17.2957 16.7001 16.4739 17.4235C15.6521 18.1469 14.5948 18.546 13.5 18.546C10.1185 18.546 6.87548 17.2027 4.48439 14.8117C2.0933 12.4206 0.75 9.17755 0.75 5.79604C0.750101 4.70129 1.14921 3.64411 1.87261 2.82242C2.596 2.00073 3.59409 1.47087 4.68 1.33204C4.84089 1.31264 5.00373 1.34603 5.14401 1.42719C5.28428 1.50835 5.39439 1.63288 5.45775 1.78204L7.34175 6.17704C7.3902 6.2906 7.40987 6.41436 7.39901 6.53735C7.38815 6.66033 7.3471 6.77873 7.2795 6.88204L5.7195 9.26554C5.6487 9.37287 5.60692 9.49673 5.59825 9.62501C5.58957 9.7533 5.61429 9.88165 5.67 9.99754V9.99754Z" stroke="#B43838" stroke-width="1.5" stroke-linecap="round" stroke-linejoin="round"/>
</svg>
