<svg width="59" height="59" viewBox="0 0 59 59" fill="none" xmlns="http://www.w3.org/2000/svg">
<path opacity="0.21" d="M35.0488 0C47.7514 0 58.0488 10.2975 58.0488 23V35.0488C58.0488 47.7514 47.7514 58.0488 35.0488 58.0488H23C10.2975 58.0488 0 47.7514 0 35.0488V23C3.225e-05 10.2975 10.2975 5.56609e-06 23 0H35.0488Z" fill="#4AD991"/>
<path d="M18.4904 39.5594H41.0651C41.8963 39.5594 42.5701 40.2332 42.5701 41.0644C42.5701 41.8956 41.8963 42.5694 41.0651 42.5694H16.9854C16.1543 42.5694 15.4805 41.8956 15.4805 41.0644V16.9847C15.4805 16.1535 16.1543 15.4797 16.9854 15.4797C17.8166 15.4797 18.4904 16.1535 18.4904 16.9847V39.5594Z" fill="#4AD991"/>
<path opacity="0.5" d="M24.1049 33.0639C23.5364 33.6703 22.584 33.701 21.9776 33.1325C21.3712 32.5641 21.3405 31.6117 21.909 31.0053L27.5527 24.9854C28.1025 24.3989 29.016 24.3481 29.6275 24.8699L34.0819 28.6709L39.8855 21.3197C40.4005 20.6673 41.3469 20.556 41.9992 21.071C42.6516 21.586 42.763 22.5324 42.2479 23.1848L35.4755 31.7632C34.9465 32.4332 33.9668 32.5296 33.3174 31.9754L28.7662 28.0918L24.1049 33.0639Z" fill="#4AD991"/>
</svg>
