<svg width="59" height="59" viewBox="0 0 59 59" fill="none" xmlns="http://www.w3.org/2000/svg">
<path opacity="0.21" d="M35.0488 0C47.7514 0 58.0488 10.2975 58.0488 23V35.0488C58.0488 47.7514 47.7514 58.0488 35.0488 58.0488H23C10.2975 58.0488 0 47.7514 0 35.0488V23C3.72609e-06 10.2975 10.2975 1.85591e-06 23 0H35.0488Z" fill="#8280FF"/>
<path opacity="0.587821" d="M36.7637 23.865C38.9009 23.8651 40.6338 25.5979 40.6338 27.7351C40.6336 29.8722 38.9008 31.6042 36.7637 31.6042C34.6265 31.6042 32.8938 29.8722 32.8936 27.7351C32.8936 25.5978 34.6264 23.865 36.7637 23.865ZM25.1543 17.4148C28.0039 17.4149 30.3145 19.7253 30.3145 22.575C30.3143 25.4245 28.0039 27.735 25.1543 27.7351C22.3046 27.7351 19.9943 25.4246 19.9941 22.575C19.9941 19.7252 22.3045 17.4148 25.1543 17.4148Z" fill="#8280FF"/>
<path d="M25.1328 30.3145C31.3091 30.3145 36.3837 33.2729 36.7617 39.6026C36.7768 39.855 36.7617 40.6348 35.793 40.6348H14.4834C14.16 40.6348 13.519 39.9371 13.5459 39.6016C14.0459 33.4451 19.0425 30.3147 25.1328 30.3145ZM36.251 32.8965C40.6451 32.9447 44.2328 35.1653 44.5029 39.8604C44.5138 40.0496 44.503 40.6336 43.8037 40.6339H38.8291C38.829 37.7309 37.8694 35.0521 36.251 32.8965Z" fill="#8280FF"/>
</svg>
