<svg width="59" height="59" viewBox="0 0 59 59" fill="none" xmlns="http://www.w3.org/2000/svg">
<path opacity="0.21" d="M35.0488 0C47.7513 0 58.0488 10.2975 58.0488 23V35.0488C58.0488 47.7514 47.7514 58.0488 35.0488 58.0488H23C10.2975 58.0488 0 47.7514 0 35.0488V23C5.56721e-05 10.2975 10.2975 0 23 0H35.0488Z" fill="#FEC53D"/>
<path fill-rule="evenodd" clip-rule="evenodd" d="M14.5137 23.5259L26.9947 30.7318C27.1291 30.8094 27.27 30.8654 27.4135 30.901V44.8766L15.4038 37.7692C14.8521 37.4427 14.5137 36.8492 14.5137 36.2081V23.5259ZM43.5386 23.3343V36.2081C43.5386 36.8492 43.2002 37.4427 42.6484 37.7692L30.6388 44.8766V30.7786C30.668 30.764 30.697 30.7484 30.7257 30.7318L43.5386 23.3343Z" fill="#FEC53D"/>
<path opacity="0.499209" fill-rule="evenodd" clip-rule="evenodd" d="M14.9063 20.0284C15.0587 19.8359 15.2511 19.6732 15.4755 19.5537L28.1737 12.7903C28.7068 12.5064 29.3462 12.5064 29.8793 12.7903L42.5775 19.5537C42.7505 19.6458 42.9045 19.7636 43.0358 19.9009L29.1135 27.939C29.0219 27.9918 28.9375 28.0523 28.8606 28.1191C28.7837 28.0523 28.6993 27.9918 28.6077 27.939L14.9063 20.0284Z" fill="#FEC53D"/>
</svg>
