<svg width="59" height="59" viewBox="0 0 59 59" fill="none" xmlns="http://www.w3.org/2000/svg">
<path opacity="0.3" d="M35.0488 0C47.7514 0 58.0488 10.2975 58.0488 23V35.0488C58.0488 47.7514 47.7514 58.0488 35.0488 58.0488H23C10.2975 58.0488 0 47.7514 0 35.0488V23C3.72609e-06 10.2975 10.2975 1.85591e-06 23 0H35.0488Z" fill="#FF9066"/>
<path opacity="0.78" fill-rule="evenodd" clip-rule="evenodd" d="M27.6975 23.0498C27.7175 22.7893 27.9347 22.5882 28.196 22.5882H28.5705C28.8273 22.5882 29.0424 22.7828 29.068 23.0384L29.668 29.0381L33.931 31.4741C34.0867 31.5631 34.1829 31.7288 34.1829 31.9082V32.2534C34.1829 32.5831 33.8694 32.8226 33.5513 32.7358L27.4866 31.0818C27.2553 31.0187 27.1013 30.8002 27.1197 30.5611L27.6975 23.0498Z" fill="#FF9066"/>
<path opacity="0.901274" d="M21.1328 14.7275C21.2284 14.3282 21.7379 14.2078 22.002 14.5224L23.7217 16.5722C25.3502 15.8788 27.1417 15.4941 29.0234 15.4941L29.373 15.498C36.6919 15.6835 42.5682 21.6745 42.5684 29.038C42.5684 36.5186 36.504 42.5829 29.0234 42.5829C21.5428 42.5829 15.4785 36.5186 15.4785 29.038C15.4786 27.7677 15.6534 26.5379 15.9805 25.372L18.4648 26.0693C18.1965 27.0261 18.0586 28.0216 18.0586 29.038C18.0586 35.0937 22.9677 40.0029 29.0234 40.0029C35.0791 40.0028 39.9883 35.0937 39.9883 29.038C39.9881 23.1718 35.3811 18.3817 29.5879 18.0878L29.0234 18.0732C27.7963 18.0732 26.6016 18.276 25.4746 18.6611L27.1953 20.7119C27.4599 21.0271 27.2517 21.5098 26.8408 21.5331L20.0791 21.916C19.745 21.9348 19.4869 21.6263 19.5645 21.3007L21.1328 14.7275Z" fill="#FF9066"/>
</svg>
